<svg xmlns="http://www.w3.org/2000/svg" xmlns:xlink="http://www.w3.org/1999/xlink" width="500" zoomAndPan="magnify" viewBox="0 0 375 374.999991" height="500" preserveAspectRatio="xMidYMid meet" version="1.0"><path fill="#e5a241" d="M 323.796875 236.539062 L 311.972656 107.019531 C 309.953125 90 294.664062 77.597656 277.933594 79.617188 C 262.933594 81.347656 251.394531 94.039062 250.816406 109.328125 L 249.953125 127.210938 C 228.605469 92.597656 185.625 22.210938 185.046875 21.632812 C 180.722656 14.421875 173.796875 9.519531 165.722656 7.789062 C 157.644531 6.058594 149.566406 7.210938 142.644531 11.828125 C 136.585938 15.578125 132.257812 21.347656 129.953125 27.980469 L 122.164062 15.578125 C 117.835938 8.367188 110.914062 3.460938 102.835938 1.730469 C 94.757812 0 86.683594 1.152344 79.757812 5.769531 C 65.625 14.710938 61.296875 34.039062 69.953125 48.75 L 74.277344 55.960938 C 67.355469 55.097656 60.433594 56.539062 54.375 60.289062 C 40.242188 69.230469 35.914062 88.558594 44.566406 103.269531 L 59.566406 127.789062 C 52.644531 126.921875 45.722656 128.367188 39.664062 132.117188 C 26.105469 140.480469 21.777344 159.519531 30.722656 174.230469 L 111.203125 305.769531 C 133.414062 342.117188 174.953125 369.519531 218.507812 369.519531 C 234.953125 369.519531 251.394531 365.769531 267.546875 357.117188 C 267.546875 357.117188 267.835938 357.117188 267.835938 356.828125 L 277.066406 350.769531 C 300.144531 336.058594 313.992188 319.328125 321.492188 296.828125 C 326.972656 280.382812 326.394531 265.097656 324.953125 249.808594 C 324.375 242.597656 323.796875 236.539062 323.796875 236.539062 Z M 310.816406 293.078125 C 304.183594 312.980469 291.777344 327.691406 271.007812 340.960938 L 261.777344 346.730469 C 208.992188 375 148.703125 345 121.007812 299.710938 L 40.527344 168.171875 C 34.757812 158.941406 37.644531 146.828125 46.585938 141.058594 C 55.527344 135.578125 67.355469 138.460938 72.835938 147.402344 L 123.894531 231.058594 C 125.625 233.652344 129.085938 234.519531 131.683594 233.078125 C 134.277344 231.347656 135.144531 227.882812 133.703125 225.289062 L 55.242188 96.347656 C 49.472656 87.117188 52.355469 75 61.296875 69.230469 C 70.242188 63.460938 82.066406 66.632812 87.546875 75.578125 C 87.546875 75.578125 166.007812 203.941406 166.007812 204.230469 C 167.742188 206.828125 171.203125 207.691406 173.796875 206.25 C 176.394531 204.519531 177.257812 201.058594 175.816406 198.171875 L 80.335938 41.828125 C 74.566406 32.597656 77.453125 20.480469 86.394531 14.710938 C 95.335938 8.941406 107.164062 12.117188 112.644531 21.058594 C 112.644531 21.058594 208.125 177.117188 208.125 177.402344 C 209.855469 180 213.316406 180.867188 215.914062 179.421875 C 218.507812 177.691406 219.375 174.230469 217.933594 171.632812 C 217.933594 171.632812 142.933594 48.75 142.933594 48.75 C 137.164062 39.519531 140.046875 27.402344 148.992188 21.632812 C 153.316406 19.039062 158.222656 18.171875 163.125 19.328125 C 168.316406 20.480469 172.355469 23.652344 175.242188 27.980469 C 175.816406 29.132812 238.414062 130.671875 249.953125 149.421875 C 251.394531 151.441406 253.703125 152.597656 256.296875 152.019531 C 258.605469 151.441406 260.625 149.132812 260.625 146.828125 L 262.355469 109.902344 C 262.644531 100.382812 269.855469 92.308594 279.085938 91.152344 C 289.472656 90 298.992188 97.789062 300.433594 108.460938 C 300.433594 108.460938 313.125 243.75 313.703125 250.960938 C 314.855469 265.382812 315.722656 278.652344 310.816406 293.078125 Z M 310.816406 293.078125 " fill-opacity="1" fill-rule="nonzero"/><path fill="#e5a241" d="M 50.914062 317.882812 C 37.933594 313.558594 26.683594 299.421875 20.914062 287.882812 C 13.992188 274.328125 12.546875 258.460938 17.164062 244.328125 C 18.027344 241.152344 16.585938 237.980469 13.414062 237.117188 C 10.242188 236.25 7.066406 237.691406 6.203125 240.867188 C 0.722656 257.882812 2.453125 276.921875 10.816406 293.367188 C 14.277344 300 26.972656 321.921875 47.453125 328.847656 C 50.335938 329.710938 53.796875 328.269531 54.664062 325.097656 C 55.527344 322.210938 54.085938 319.039062 50.914062 317.882812 Z M 50.914062 317.882812 " fill-opacity="1" fill-rule="nonzero"/><path fill="#e5a241" d="M 65.335938 289.039062 C 58.703125 286.730469 52.644531 279.230469 49.472656 273.171875 C 45.722656 265.960938 45.144531 257.597656 47.453125 250.097656 C 48.316406 246.921875 46.875 243.75 43.703125 242.882812 C 40.527344 242.019531 37.355469 243.460938 36.492188 246.632812 C 33.027344 257.019531 34.183594 268.558594 39.085938 278.367188 C 41.105469 282.402344 48.894531 295.671875 61.585938 300 C 64.472656 300.867188 67.933594 299.421875 68.796875 296.25 C 69.953125 293.367188 68.507812 290.191406 65.335938 289.039062 Z M 65.335938 289.039062 " fill-opacity="1" fill-rule="nonzero"/><path fill="#e5a241" d="M 360.433594 60 C 356.394531 53.941406 341.394531 33.75 320.335938 29.421875 C 317.164062 28.847656 314.277344 30.867188 313.414062 34.039062 C 312.835938 37.210938 314.855469 40.097656 318.027344 40.960938 C 331.296875 43.558594 343.703125 55.960938 350.625 66.632812 C 358.992188 79.039062 362.164062 94.617188 359.566406 109.328125 C 358.992188 112.5 361.007812 115.382812 364.183594 115.960938 L 365.335938 115.960938 C 367.933594 115.960938 370.527344 113.941406 371.105469 111.347656 C 374.277344 93.460938 370.527344 74.710938 360.433594 60 Z M 360.433594 60 " fill-opacity="1" fill-rule="nonzero"/><path fill="#e5a241" d="M 309.953125 59.421875 C 306.777344 58.847656 303.894531 60.867188 303.027344 64.039062 C 302.453125 67.210938 304.472656 70.097656 307.644531 70.960938 C 314.566406 72.402344 320.914062 79.039062 324.664062 84.519531 C 328.992188 91.152344 330.722656 99.230469 329.566406 107.019531 C 328.992188 110.191406 331.007812 113.078125 334.183594 113.652344 C 337.355469 114.230469 340.242188 112.210938 340.816406 109.039062 C 342.835938 98.367188 340.527344 87.117188 334.183594 77.882812 C 331.875 74.421875 322.933594 62.019531 309.953125 59.421875 Z M 309.953125 59.421875 " fill-opacity="1" fill-rule="nonzero"/></svg>