<svg xmlns="http://www.w3.org/2000/svg" xmlns:xlink="http://www.w3.org/1999/xlink" zoomAndPan="magnify" preserveAspectRatio="xMidYMid meet" version="1.0" viewBox="0.21 36.8 374.79 301.52"><defs><clipPath id="28a8d467cc"><path d="M 200 36.816406 L 375 36.816406 L 375 211 L 200 211 Z M 200 36.816406 " clip-rule="nonzero"/></clipPath><clipPath id="9e5b7e66a0"><path d="M 193 212 L 318 212 L 318 338.316406 L 193 338.316406 Z M 193 212 " clip-rule="nonzero"/></clipPath></defs><path fill="#e5a241" d="M 127.078125 91.355469 L 94.320312 156.910156 L 29.921875 178.089844 L 91.445312 206.878906 L 108.152344 266.6875 L 139.839844 209.710938 L 142.863281 207.125 L 205.359375 184.273438 L 144.136719 155.210938 Z M 86.304688 147.582031 L 130.101562 57.933594 L 153.761719 147.199219 L 234.722656 185.628906 L 148.730469 217.074219 L 104.992188 296.585938 L 81.914062 214.945312 L 0.210938 175.863281 Z M 86.304688 147.582031 " fill-opacity="1" fill-rule="nonzero"/><g clip-path="url(#28a8d467cc)"><path fill="#c63e45" d="M 293.9375 67.292969 L 272.421875 110.34375 L 230.214844 124.222656 L 270.613281 143.125 L 281.539062 182.25 L 301.976562 145.496094 L 305.003906 142.910156 L 345.457031 128.121094 L 305.058594 108.945312 Z M 264.410156 101.007812 L 296.898438 36.800781 L 314.691406 100.933594 L 374.820312 129.480469 L 310.863281 152.871094 L 278.777344 210.9375 L 261.074219 151.183594 L 200.1875 123.148438 Z M 264.410156 101.007812 " fill-opacity="1" fill-rule="nonzero"/></g><g clip-path="url(#9e5b7e66a0)"><path fill="#e8623f" d="M 259.261719 242.285156 L 247.167969 266.488281 L 223.546875 274.257812 L 246.246094 284.878906 L 252.335938 306.6875 L 263.359375 286.871094 L 266.382812 284.292969 L 288.378906 276.25 L 265.414062 265.347656 Z M 239.15625 257.160156 L 262.726562 212.117188 L 275.054688 257.34375 L 317.746094 277.605469 L 272.246094 294.242188 L 248.5625 338.285156 L 236.714844 292.941406 L 193.304688 272.660156 Z M 239.15625 257.160156 " fill-opacity="1" fill-rule="nonzero"/></g></svg>