<svg xmlns="http://www.w3.org/2000/svg" xmlns:xlink="http://www.w3.org/1999/xlink" width="500" zoomAndPan="magnify" viewBox="0 0 375 374.999991" height="500" preserveAspectRatio="xMidYMid meet" version="1.0"><defs><clipPath id="8b85c3cd5b"><path d="M 33.050781 0.125 L 342.050781 0.125 L 342.050781 374.867188 L 33.050781 374.867188 Z M 33.050781 0.125 " clip-rule="nonzero"/></clipPath></defs><g clip-path="url(#8b85c3cd5b)"><path fill="#c63e45" d="M 75.667969 301.855469 L 75.667969 12.210938 L 329.960938 12.210938 L 329.960938 301.855469 Z M 69.621094 362.78125 C 56.160156 362.78125 45.203125 351.824219 45.203125 338.355469 C 45.203125 324.890625 56.160156 313.941406 69.621094 313.941406 L 308.867188 313.941406 C 303.035156 320.410156 299.476562 328.976562 299.476562 338.355469 C 299.476562 347.738281 303.035156 356.304688 308.878906 362.78125 Z M 45.203125 36.636719 C 45.203125 25.269531 53.046875 15.773438 63.578125 13.0625 L 63.578125 302.464844 C 56.558594 303.640625 50.253906 306.828125 45.203125 311.414062 Z M 336.003906 313.941406 C 339.347656 313.941406 342.050781 311.242188 342.050781 307.898438 L 342.050781 6.167969 C 342.050781 2.828125 339.351562 0.121094 336.003906 0.121094 L 69.621094 0.121094 C 49.488281 0.121094 33.109375 16.503906 33.109375 36.636719 L 33.109375 333.425781 C 33.109375 333.425781 32.464844 340.539062 35.484375 350.9375 C 39.039062 363.1875 53.929688 374.867188 69.621094 374.867188 L 336.003906 374.867188 C 339.347656 374.867188 342.050781 372.167969 342.050781 368.828125 C 342.050781 365.480469 339.351562 362.78125 336.003906 362.78125 C 322.535156 362.78125 311.570312 351.824219 311.570312 338.355469 C 311.570312 324.890625 322.535156 313.941406 336.003906 313.941406 " fill-opacity="1" fill-rule="nonzero"/></g></svg>