<svg xmlns="http://www.w3.org/2000/svg" xmlns:xlink="http://www.w3.org/1999/xlink" width="600" zoomAndPan="magnify" viewBox="0 0 450 374.999991" height="500" preserveAspectRatio="xMidYMid meet" version="1.0"><defs><clipPath id="72da34a694"><path d="M 154 0 L 450 0 L 450 207 L 154 207 Z M 154 0 " clip-rule="nonzero"/></clipPath><clipPath id="31ee64947e"><path d="M 0 1.300781 L 412.351562 -96.320312 L 512.910156 328.441406 L 100.558594 426.0625 Z M 0 1.300781 " clip-rule="nonzero"/></clipPath><clipPath id="072ade166a"><path d="M 512.90625 328.117188 L 100.554688 425.738281 L -0.00390625 0.980469 L 412.347656 -96.644531 Z M 512.90625 328.117188 " clip-rule="nonzero"/></clipPath><clipPath id="c7609084ee"><path d="M 512.90625 328.117188 L 100.554688 425.738281 L -0.00390625 0.980469 L 412.347656 -96.644531 Z M 512.90625 328.117188 " clip-rule="nonzero"/></clipPath><clipPath id="1640253e88"><path d="M 218 0 L 450 0 L 450 132 L 218 132 Z M 218 0 " clip-rule="nonzero"/></clipPath><clipPath id="f03cbbdeed"><path d="M 0 1.300781 L 412.351562 -96.320312 L 512.910156 328.441406 L 100.558594 426.0625 Z M 0 1.300781 " clip-rule="nonzero"/></clipPath><clipPath id="865a3ed62f"><path d="M 512.90625 328.117188 L 100.554688 425.738281 L -0.00390625 0.980469 L 412.347656 -96.644531 Z M 512.90625 328.117188 " clip-rule="nonzero"/></clipPath><clipPath id="033fa079a9"><path d="M 512.90625 328.117188 L 100.554688 425.738281 L -0.00390625 0.980469 L 412.347656 -96.644531 Z M 512.90625 328.117188 " clip-rule="nonzero"/></clipPath><clipPath id="3df0b16ef2"><path d="M 86 0 L 450 0 L 450 266 L 86 266 Z M 86 0 " clip-rule="nonzero"/></clipPath><clipPath id="bdd5e714cd"><path d="M 0 1.300781 L 412.351562 -96.320312 L 512.910156 328.441406 L 100.558594 426.0625 Z M 0 1.300781 " clip-rule="nonzero"/></clipPath><clipPath id="640411b913"><path d="M 512.90625 328.117188 L 100.554688 425.738281 L -0.00390625 0.980469 L 412.347656 -96.644531 Z M 512.90625 328.117188 " clip-rule="nonzero"/></clipPath><clipPath id="f8d661dace"><path d="M 512.90625 328.117188 L 100.554688 425.738281 L -0.00390625 0.980469 L 412.347656 -96.644531 Z M 512.90625 328.117188 " clip-rule="nonzero"/></clipPath><clipPath id="ac63bea1c8"><path d="M 15 0 L 450 0 L 450 346 L 15 346 Z M 15 0 " clip-rule="nonzero"/></clipPath><clipPath id="94d01b8a74"><path d="M 0 1.300781 L 412.351562 -96.320312 L 512.910156 328.441406 L 100.558594 426.0625 Z M 0 1.300781 " clip-rule="nonzero"/></clipPath><clipPath id="00f87bdcb7"><path d="M 512.90625 328.117188 L 100.554688 425.738281 L -0.00390625 0.980469 L 412.347656 -96.644531 Z M 512.90625 328.117188 " clip-rule="nonzero"/></clipPath><clipPath id="949c694106"><path d="M 512.90625 328.117188 L 100.554688 425.738281 L -0.00390625 0.980469 L 412.347656 -96.644531 Z M 512.90625 328.117188 " clip-rule="nonzero"/></clipPath></defs><g clip-path="url(#72da34a694)"><g clip-path="url(#31ee64947e)"><g clip-path="url(#072ade166a)"><g clip-path="url(#c7609084ee)"><path fill="#e8623f" d="M 170.664062 -39.425781 C 176.425781 -23.550781 176.921875 -6.960938 177.402344 9.074219 C 177.566406 14.535156 177.734375 20.199219 178.121094 25.609375 C 179.296875 42.3125 183.992188 64.402344 199.601562 74.847656 C 214.058594 84.515625 234.558594 81.746094 249.179688 77.710938 C 254.710938 76.179688 260.382812 74.320312 265.867188 72.507812 C 279.101562 68.140625 292.785156 63.652344 307.417969 62.75 C 318.21875 62.101562 327.050781 63.703125 334.441406 67.675781 C 343.035156 72.292969 349.5 79.980469 353.703125 90.527344 C 356.882812 98.511719 358.671875 107.921875 359.019531 118.523438 C 359.148438 122.25 359.148438 126.023438 359.15625 129.65625 C 359.171875 142.464844 359.199219 154.574219 364.054688 164.765625 C 372.46875 182.457031 394.316406 190.15625 412.203125 189.933594 C 433.234375 189.664062 453.625 181.238281 473.34375 173.074219 L 479.839844 188.777344 C 459.632812 197.136719 436.714844 206.617188 412.433594 206.921875 C 399.691406 207.078125 386.675781 204.160156 375.777344 198.695312 C 363.414062 192.488281 354.074219 183.296875 348.71875 172.070312 C 342.210938 158.417969 342.183594 143.804688 342.175781 129.683594 C 342.160156 126.011719 342.171875 122.554688 342.046875 119.085938 C 341.6875 108.425781 339.175781 89.515625 326.414062 82.644531 C 321.890625 80.21875 316.027344 79.265625 308.457031 79.726562 C 296.015625 80.484375 283.957031 84.453125 271.179688 88.648438 C 265.507812 90.507812 259.636719 92.457031 253.691406 94.082031 C 242.25 97.226562 231.578125 98.679688 221.929688 98.402344 C 209.660156 98.050781 198.964844 94.863281 190.144531 88.964844 C 180.621094 82.597656 173.289062 73.09375 168.351562 60.695312 C 164.5 51.058594 162.078125 39.65625 161.175781 26.78125 C 160.761719 21.015625 160.589844 15.179688 160.425781 9.535156 C 159.984375 -5.832031 159.542969 -20.347656 154.707031 -33.640625 Z M 170.664062 -39.425781 " fill-opacity="1" fill-rule="nonzero"/></g></g></g></g><g clip-path="url(#1640253e88)"><g clip-path="url(#f03cbbdeed)"><g clip-path="url(#865a3ed62f)"><g clip-path="url(#033fa079a9)"><path fill="#e5a241" d="M 234.839844 -54.617188 C 239.234375 -42.511719 239.609375 -30.027344 239.964844 -17.953125 C 240.09375 -13.734375 240.203125 -9.746094 240.488281 -5.78125 C 241.320312 6.117188 244.597656 21.808594 255.445312 29.070312 C 265.492188 35.789062 280.011719 33.761719 290.429688 30.898438 C 294.472656 29.785156 298.464844 28.460938 302.703125 27.082031 C 312.644531 23.8125 322.9375 20.421875 334.089844 19.75 C 342.523438 19.242188 349.453125 20.519531 355.296875 23.667969 C 362.144531 27.347656 367.273438 33.425781 370.589844 41.738281 C 373.039062 47.890625 374.417969 55.132812 374.6875 63.230469 C 374.773438 66.03125 374.785156 68.847656 374.789062 71.550781 C 374.796875 80.804688 374.820312 89.539062 378.210938 96.640625 C 384.027344 108.890625 399.335938 114.203125 411.917969 114.046875 C 427.09375 113.847656 442.023438 107.671875 456.449219 101.714844 L 462.945312 117.417969 C 447.761719 123.695312 430.574219 130.804688 412.132812 131.039062 C 402.335938 131.152344 392.320312 128.914062 383.941406 124.703125 C 374.328125 119.886719 367.050781 112.710938 362.871094 103.945312 C 357.832031 93.382812 357.824219 82.28125 357.804688 71.558594 C 357.800781 68.859375 357.789062 66.296875 357.707031 63.773438 C 357.507812 57.726562 356.511719 52.261719 354.804688 47.996094 C 353.027344 43.492188 350.472656 40.339844 347.269531 38.617188 C 344.332031 37.027344 340.25 36.386719 335.125 36.703125 C 326.1875 37.253906 317.367188 40.15625 308.03125 43.21875 C 303.796875 44.617188 299.414062 46.054688 294.964844 47.285156 C 286.261719 49.683594 278.132812 50.792969 270.757812 50.574219 C 261.242188 50.285156 252.914062 47.804688 246.03125 43.199219 C 238.601562 38.222656 232.882812 30.835938 229.039062 21.21875 C 226.101562 13.851562 224.246094 5.171875 223.5625 -4.597656 C 223.253906 -8.914062 223.132812 -13.273438 222.996094 -17.472656 C 222.660156 -28.695312 222.355469 -39.289062 218.886719 -48.816406 Z M 234.839844 -54.617188 " fill-opacity="1" fill-rule="nonzero"/></g></g></g></g><g clip-path="url(#3df0b16ef2)"><g clip-path="url(#bdd5e714cd)"><g clip-path="url(#640411b913)"><g clip-path="url(#f8d661dace)"><path fill="#c63e45" d="M 102.898438 -23.382812 C 109.886719 -4.597656 110.210938 15.207031 110.542969 34.375 C 110.648438 40.945312 110.769531 47.75 111.164062 54.269531 C 112.398438 74.578125 118.078125 101.417969 138.246094 114.023438 C 157.1875 125.867188 184.015625 122.097656 203.214844 116.835938 C 210.316406 114.898438 217.578125 112.542969 224.597656 110.265625 C 241.296875 104.859375 258.574219 99.28125 276.78125 97.988281 C 289.996094 97.046875 300.757812 98.75 309.644531 103.179688 C 320.085938 108.394531 327.917969 117.246094 332.929688 129.527344 C 336.761719 138.929688 338.851562 150.09375 339.125 162.664062 C 339.226562 167.109375 339.167969 171.632812 339.109375 175.996094 C 338.914062 191.515625 338.730469 206.175781 344.835938 218.554688 C 355.570312 240.328125 384.03125 249.480469 407.464844 248.878906 C 434.6875 248.191406 460.957031 237.605469 486.359375 227.378906 L 492.714844 243.15625 C 467.148438 253.4375 438.175781 265.105469 407.898438 265.878906 C 392.132812 266.273438 376.074219 263.0625 362.695312 256.855469 C 347.488281 249.789062 336.039062 239.152344 329.609375 226.074219 C 321.703125 210.027344 321.925781 192.617188 322.128906 175.785156 C 322.175781 171.363281 322.238281 167.195312 322.144531 163.027344 C 321.871094 149.964844 318.90625 126.789062 302.074219 118.398438 C 295.976562 115.355469 288.109375 114.238281 278 114.941406 C 261.835938 116.085938 246.296875 121.117188 229.835938 126.445312 C 222.628906 128.765625 215.183594 131.183594 207.691406 133.238281 C 193.394531 137.136719 180.089844 139.035156 168.140625 138.863281 C 153.066406 138.640625 139.972656 135.144531 129.253906 128.425781 C 117.582031 121.121094 108.632812 110.050781 102.671875 95.53125 C 97.988281 84.125 95.160156 70.59375 94.21875 55.285156 C 93.796875 48.390625 93.691406 41.40625 93.5625 34.664062 C 93.242188 16.125 92.941406 -1.402344 86.980469 -17.449219 Z M 102.898438 -23.382812 " fill-opacity="1" fill-rule="nonzero"/></g></g></g></g><g clip-path="url(#ac63bea1c8)"><g clip-path="url(#94d01b8a74)"><g clip-path="url(#00f87bdcb7)"><g clip-path="url(#949c694106)"><path fill="#1c5765" d="M 31.621094 -6.507812 C 40.074219 16.199219 40.484375 40.316406 40.863281 63.625 C 41.007812 71.695312 41.136719 80.046875 41.632812 88.09375 C 43.164062 113.414062 50.324219 146.933594 75.714844 162.8125 C 99.5 177.679688 132.964844 173.015625 156.839844 166.488281 C 165.601562 164.097656 174.523438 161.210938 183.128906 158.417969 C 203.480469 151.832031 224.53125 145.019531 246.628906 143.464844 C 262.472656 142.335938 275.316406 144.359375 285.894531 149.640625 C 298.25 155.8125 307.53125 166.347656 313.507812 180.941406 C 318.128906 192.242188 320.632812 205.675781 320.953125 220.851562 C 321.0625 226.269531 321 231.785156 320.933594 237.125 C 320.6875 256.371094 320.46875 274.558594 328.148438 290.140625 C 341.652344 317.589844 377.320312 329.109375 406.660156 328.382812 C 440.355469 327.535156 472.710938 314.492188 504 301.898438 L 510.355469 317.675781 C 479.191406 330.21875 443.867188 344.460938 407.089844 345.378906 C 388.054688 345.855469 368.683594 342 352.539062 334.5 C 334.300781 326.027344 320.609375 313.296875 312.902344 297.664062 C 303.421875 278.414062 303.6875 257.316406 303.9375 236.917969 C 304 231.738281 304.078125 226.359375 303.953125 221.222656 C 303.613281 204.777344 299.816406 175.582031 278.304688 164.867188 C 270.523438 160.988281 260.554688 159.535156 247.804688 160.425781 C 227.78125 161.851562 208.605469 168.039062 188.332031 174.605469 C 179.523438 177.464844 170.414062 180.398438 161.28125 182.898438 C 143.945312 187.636719 127.824219 189.945312 113.367188 189.730469 C 95.246094 189.472656 79.542969 185.265625 66.683594 177.226562 C 52.730469 168.492188 42.011719 155.238281 34.867188 137.800781 C 29.203125 124.027344 25.78125 107.636719 24.664062 89.089844 C 24.164062 80.6875 24.007812 72.144531 23.878906 63.890625 C 23.5 41 23.125 19.378906 15.699219 -0.59375 Z M 31.621094 -6.507812 " fill-opacity="1" fill-rule="nonzero"/></g></g></g></g></svg>