<svg xmlns="http://www.w3.org/2000/svg" xmlns:xlink="http://www.w3.org/1999/xlink" width="500" zoomAndPan="magnify" viewBox="0 0 375 374.999991" height="500" preserveAspectRatio="xMidYMid meet" version="1.0"><defs><clipPath id="756ca06b31"><path d="M 20.390625 161 L 56 161 L 56 173 L 20.390625 173 Z M 20.390625 161 " clip-rule="nonzero"/></clipPath><clipPath id="9a2b400b9a"><path d="M 320 161 L 354.890625 161 L 354.890625 173 L 320 173 Z M 320 161 " clip-rule="nonzero"/></clipPath></defs><path fill="#e8623f" d="M 187.628906 61.550781 C 183.710938 61.550781 179.734375 61.773438 175.800781 62.210938 C 131.335938 67.128906 89.515625 108.800781 84.484375 153.210938 C 80.257812 190.429688 95.578125 225.984375 125.46875 248.324219 C 135.855469 256.089844 141.8125 267.515625 141.8125 279.667969 L 141.8125 307.828125 C 141.8125 318.320312 150.351562 326.855469 160.851562 326.855469 L 214.394531 326.855469 C 224.894531 326.855469 233.433594 318.320312 233.433594 307.828125 L 233.433594 280.171875 C 233.433594 267.757812 239.507812 256.0625 250.097656 248.085938 C 276.382812 228.285156 291.453125 198.109375 291.453125 165.296875 C 291.457031 108.089844 244.878906 61.550781 187.628906 61.550781 Z M 214.398438 314.355469 L 160.851562 314.355469 C 157.253906 314.355469 154.324219 311.425781 154.324219 307.828125 L 154.324219 291.652344 L 220.925781 291.652344 L 220.925781 307.828125 C 220.925781 311.425781 217.996094 314.355469 214.398438 314.355469 Z M 242.566406 238.105469 C 228.8125 248.464844 220.925781 263.796875 220.925781 280.167969 L 220.925781 281.234375 L 154.324219 281.234375 L 154.324219 279.667969 C 154.324219 263.535156 146.539062 248.460938 132.960938 238.3125 C 106.671875 218.660156 93.195312 187.371094 96.910156 154.617188 C 101.261719 116.257812 138.769531 78.882812 177.175781 74.632812 C 180.652344 74.246094 184.171875 74.050781 187.628906 74.050781 C 237.980469 74.050781 278.945312 114.984375 278.945312 165.296875 C 278.945312 194.148438 265.683594 220.6875 242.566406 238.105469 Z M 242.566406 238.105469 " fill-opacity="1" fill-rule="nonzero"/><path fill="#e8623f" d="M 217.921875 334.34375 L 157.324219 334.34375 C 153.871094 334.34375 151.070312 337.140625 151.070312 340.59375 C 151.070312 344.046875 153.871094 346.84375 157.324219 346.84375 L 217.921875 346.84375 C 221.375 346.84375 224.179688 344.046875 224.179688 340.59375 C 224.179688 337.140625 221.378906 334.34375 217.921875 334.34375 Z M 217.921875 334.34375 " fill-opacity="1" fill-rule="nonzero"/><path fill="#e8623f" d="M 168.222656 357.253906 C 168.222656 367.054688 176.175781 375 185.984375 375 L 189.265625 375 C 199.074219 375 207.027344 367.054688 207.027344 357.253906 L 207.027344 356.390625 L 168.222656 356.390625 Z M 168.222656 357.253906 " fill-opacity="1" fill-rule="nonzero"/><path fill="#e8623f" d="M 214.867188 125.851562 C 206.089844 125.851562 197.808594 129.265625 191.527344 135.476562 L 187.628906 139.367188 L 183.753906 135.457031 C 177.488281 129.265625 169.203125 125.851562 160.425781 125.851562 C 151.683594 125.851562 143.421875 129.265625 137.152344 135.46875 C 130.894531 141.683594 127.449219 149.957031 127.449219 158.769531 C 127.449219 167.582031 130.894531 175.855469 137.128906 182.050781 L 184.667969 229.609375 C 185.449219 230.390625 186.507812 230.828125 187.617188 230.828125 C 188.722656 230.828125 189.785156 230.390625 190.566406 229.609375 L 238.152344 182.066406 C 244.375 175.851562 247.800781 167.578125 247.800781 158.773438 C 247.800781 149.964844 244.375 141.691406 238.152344 135.476562 C 231.941406 129.269531 223.667969 125.851562 214.867188 125.851562 Z M 232.253906 176.171875 L 187.617188 220.769531 L 149.847656 183.035156 L 143.03125 176.164062 C 138.363281 171.523438 135.789062 165.347656 135.789062 158.773438 C 135.789062 152.195312 138.363281 146.019531 143.023438 141.382812 C 147.71875 136.742188 153.894531 134.1875 160.425781 134.1875 C 166.988281 134.1875 173.191406 136.742188 177.859375 141.359375 L 184.65625 148.207031 C 185.4375 148.996094 186.496094 149.4375 187.609375 149.441406 C 187.609375 149.441406 187.613281 149.441406 187.617188 149.441406 C 188.722656 149.441406 189.785156 149 190.566406 148.21875 L 197.410156 141.382812 C 202.105469 136.742188 208.304688 134.183594 214.867188 134.183594 C 221.445312 134.183594 227.617188 136.734375 232.257812 141.367188 C 236.902344 146.011719 239.460938 152.191406 239.460938 158.773438 C 239.460938 165.351562 236.902344 171.527344 232.253906 176.171875 Z M 232.253906 176.171875 " fill-opacity="1" fill-rule="nonzero"/><g clip-path="url(#756ca06b31)"><path fill="#e8623f" d="M 49.945312 161.585938 L 25.902344 161.585938 C 23.023438 161.585938 20.6875 163.917969 20.6875 166.796875 C 20.6875 169.671875 23.019531 172.003906 25.902344 172.003906 L 49.945312 172.003906 C 52.824219 172.003906 55.15625 169.671875 55.15625 166.796875 C 55.15625 163.917969 52.824219 161.585938 49.945312 161.585938 Z M 49.945312 161.585938 " fill-opacity="1" fill-rule="nonzero"/></g><g clip-path="url(#9a2b400b9a)"><path fill="#e8623f" d="M 349.347656 161.585938 L 325.304688 161.585938 C 322.425781 161.585938 320.09375 163.917969 320.09375 166.796875 C 320.09375 169.671875 322.425781 172.003906 325.304688 172.003906 L 349.351562 172.003906 C 352.230469 172.003906 354.5625 169.671875 354.5625 166.796875 C 354.5625 163.917969 352.230469 161.585938 349.347656 161.585938 Z M 349.347656 161.585938 " fill-opacity="1" fill-rule="nonzero"/></g><path fill="#e8623f" d="M 86.585938 260.386719 L 69.585938 277.371094 C 67.550781 279.40625 67.550781 282.703125 69.585938 284.738281 C 70.605469 285.753906 71.9375 286.265625 73.273438 286.265625 C 74.609375 286.265625 75.9375 285.753906 76.957031 284.738281 L 93.957031 267.75 C 95.992188 265.714844 95.992188 262.417969 93.957031 260.386719 C 91.917969 258.351562 88.621094 258.351562 86.585938 260.386719 Z M 86.585938 260.386719 " fill-opacity="1" fill-rule="nonzero"/><path fill="#e8623f" d="M 298.292969 48.855469 L 281.296875 65.839844 C 279.257812 67.875 279.257812 71.171875 281.296875 73.207031 C 282.3125 74.222656 283.644531 74.734375 284.980469 74.734375 C 286.316406 74.734375 287.648438 74.222656 288.667969 73.207031 L 305.664062 56.21875 C 307.703125 54.183594 307.703125 50.886719 305.664062 48.855469 C 303.628906 46.820312 300.328125 46.820312 298.292969 48.855469 Z M 298.292969 48.855469 " fill-opacity="1" fill-rule="nonzero"/><path fill="#e8623f" d="M 187.625 34.441406 C 190.503906 34.441406 192.839844 32.109375 192.839844 29.230469 L 192.839844 5.207031 C 192.839844 2.332031 190.503906 0 187.625 0 C 184.746094 0 182.414062 2.332031 182.414062 5.207031 L 182.414062 29.234375 C 182.414062 32.109375 184.746094 34.441406 187.625 34.441406 Z M 187.625 34.441406 " fill-opacity="1" fill-rule="nonzero"/><path fill="#e8623f" d="M 288.664062 260.386719 C 286.628906 258.351562 283.332031 258.351562 281.292969 260.386719 C 279.257812 262.417969 279.257812 265.714844 281.292969 267.75 L 298.292969 284.738281 C 299.3125 285.753906 300.640625 286.265625 301.976562 286.265625 C 303.3125 286.265625 304.644531 285.753906 305.664062 284.738281 C 307.699219 282.703125 307.699219 279.40625 305.664062 277.371094 Z M 288.664062 260.386719 " fill-opacity="1" fill-rule="nonzero"/><path fill="#e8623f" d="M 86.585938 73.203125 C 87.601562 74.222656 88.933594 74.730469 90.269531 74.730469 C 91.605469 74.730469 92.9375 74.222656 93.957031 73.203125 C 95.992188 71.171875 95.992188 67.875 93.957031 65.839844 L 76.957031 48.855469 C 74.917969 46.820312 71.621094 46.820312 69.585938 48.855469 C 67.546875 50.886719 67.546875 54.183594 69.585938 56.21875 Z M 86.585938 73.203125 " fill-opacity="1" fill-rule="nonzero"/></svg>