<svg xmlns="http://www.w3.org/2000/svg" xmlns:xlink="http://www.w3.org/1999/xlink" width="600" zoomAndPan="magnify" viewBox="0 0 450 374.999991" height="500" preserveAspectRatio="xMidYMid meet" version="1.0"><defs><clipPath id="071503a540"><path d="M 126 17 L 419 17 L 419 215 L 126 215 Z M 126 17 " clip-rule="nonzero"/></clipPath><clipPath id="5ca3aee8b4"><path d="M -4.757812 62.050781 L 343.460938 -45.667969 L 454.503906 313.300781 L 106.28125 421.019531 Z M -4.757812 62.050781 " clip-rule="nonzero"/></clipPath><clipPath id="f24f328a59"><path d="M 454.757812 312.941406 L 106.539062 420.65625 L -4.503906 61.6875 L 343.71875 -46.027344 Z M 454.757812 312.941406 " clip-rule="nonzero"/></clipPath><clipPath id="74587c028b"><path d="M 454.757812 312.941406 L 106.539062 420.65625 L -4.503906 61.6875 L 343.71875 -46.027344 Z M 454.757812 312.941406 " clip-rule="nonzero"/></clipPath><clipPath id="74cc94af8a"><path d="M 180 0 L 400 0 L 400 150 L 180 150 Z M 180 0 " clip-rule="nonzero"/></clipPath><clipPath id="2c57dcebd2"><path d="M -4.757812 62.050781 L 343.460938 -45.667969 L 454.503906 313.300781 L 106.28125 421.019531 Z M -4.757812 62.050781 " clip-rule="nonzero"/></clipPath><clipPath id="cd89fec05d"><path d="M 454.757812 312.941406 L 106.539062 420.65625 L -4.503906 61.6875 L 343.71875 -46.027344 Z M 454.757812 312.941406 " clip-rule="nonzero"/></clipPath><clipPath id="5f6a145a2b"><path d="M 454.757812 312.941406 L 106.539062 420.65625 L -4.503906 61.6875 L 343.71875 -46.027344 Z M 454.757812 312.941406 " clip-rule="nonzero"/></clipPath><clipPath id="0588ccb140"><path d="M 69 34 L 433 34 L 433 266 L 69 266 Z M 69 34 " clip-rule="nonzero"/></clipPath><clipPath id="8a1f73369f"><path d="M -4.757812 62.050781 L 343.460938 -45.667969 L 454.503906 313.300781 L 106.28125 421.019531 Z M -4.757812 62.050781 " clip-rule="nonzero"/></clipPath><clipPath id="3ac7765ca6"><path d="M 454.757812 312.941406 L 106.539062 420.65625 L -4.503906 61.6875 L 343.71875 -46.027344 Z M 454.757812 312.941406 " clip-rule="nonzero"/></clipPath><clipPath id="6ebf40871c"><path d="M 454.757812 312.941406 L 106.539062 420.65625 L -4.503906 61.6875 L 343.71875 -46.027344 Z M 454.757812 312.941406 " clip-rule="nonzero"/></clipPath><clipPath id="73f2fd537d"><path d="M 8 53 L 450 53 L 450 335 L 8 335 Z M 8 53 " clip-rule="nonzero"/></clipPath><clipPath id="3e788817aa"><path d="M -4.757812 62.050781 L 343.460938 -45.667969 L 454.503906 313.300781 L 106.28125 421.019531 Z M -4.757812 62.050781 " clip-rule="nonzero"/></clipPath><clipPath id="ce7542a4d9"><path d="M 454.757812 312.941406 L 106.539062 420.65625 L -4.503906 61.6875 L 343.71875 -46.027344 Z M 454.757812 312.941406 " clip-rule="nonzero"/></clipPath><clipPath id="f392d9ff8c"><path d="M 454.757812 312.941406 L 106.539062 420.65625 L -4.503906 61.6875 L 343.71875 -46.027344 Z M 454.757812 312.941406 " clip-rule="nonzero"/></clipPath></defs><g clip-path="url(#071503a540)"><g clip-path="url(#5ca3aee8b4)"><g clip-path="url(#f24f328a59)"><g clip-path="url(#74587c028b)"><path fill="#e8623f" d="M 139.625 17.105469 C 145.492188 30.40625 146.882812 44.625 148.230469 58.367188 C 148.6875 63.050781 149.164062 67.902344 149.8125 72.523438 C 151.792969 86.804688 157.109375 105.5 171.113281 113.570312 C 184.082031 121.035156 201.515625 117.472656 213.828125 113.15625 C 218.488281 111.523438 223.25 109.601562 227.847656 107.722656 C 238.953125 103.207031 250.433594 98.558594 262.9375 96.9375 C 272.171875 95.753906 279.84375 96.621094 286.417969 99.601562 C 294.0625 103.074219 300.058594 109.300781 304.28125 118.113281 C 307.476562 124.789062 309.558594 132.765625 310.476562 141.851562 C 310.800781 145.042969 311.023438 148.28125 311.238281 151.402344 C 312 162.402344 312.730469 172.800781 317.488281 181.273438 C 325.742188 195.980469 344.941406 201.324219 360.277344 200.097656 C 378.3125 198.648438 395.320312 190.234375 411.769531 182.082031 L 418.257812 195.191406 C 401.402344 203.539062 382.285156 213.007812 361.464844 214.675781 C 350.539062 215.546875 339.199219 213.796875 329.527344 209.734375 C 318.554688 205.117188 310.003906 197.765625 304.75 188.433594 C 298.371094 177.082031 297.496094 164.535156 296.667969 152.410156 C 296.441406 149.257812 296.25 146.285156 295.941406 143.316406 C 295.011719 134.179688 291.753906 118.085938 280.402344 112.925781 C 276.378906 111.101562 271.292969 110.621094 264.820312 111.457031 C 254.1875 112.828125 244.070312 116.933594 233.347656 121.28125 C 228.585938 123.203125 223.664062 125.214844 218.65625 126.957031 C 209.019531 130.320312 199.945312 132.1875 191.648438 132.507812 C 181.097656 132.914062 171.730469 130.796875 163.820312 126.242188 C 155.273438 121.324219 148.429688 113.585938 143.46875 103.226562 C 139.605469 95.171875 136.859375 85.519531 135.335938 74.511719 C 134.644531 69.589844 134.15625 64.582031 133.6875 59.75 C 132.414062 46.574219 131.191406 34.136719 126.265625 22.996094 Z M 139.625 17.105469 " fill-opacity="1" fill-rule="nonzero"/></g></g></g></g><g clip-path="url(#74cc94af8a)"><g clip-path="url(#2c57dcebd2)"><g clip-path="url(#cd89fec05d)"><g clip-path="url(#5f6a145a2b)"><path fill="#e5a241" d="M 193.816406 0.34375 C 198.292969 10.488281 199.339844 21.1875 200.351562 31.535156 C 200.707031 35.152344 201.03125 38.566406 201.507812 41.957031 C 202.914062 52.128906 206.640625 65.414062 216.375 71.023438 C 225.386719 76.210938 237.734375 73.628906 246.503906 70.566406 C 249.910156 69.375 253.257812 68.007812 256.816406 66.578125 C 265.160156 63.195312 273.792969 59.6875 283.324219 58.464844 C 290.535156 57.539062 296.554688 58.238281 301.757812 60.601562 C 307.84375 63.367188 312.601562 68.289062 315.933594 75.234375 C 318.394531 80.378906 319.996094 86.515625 320.699219 93.457031 C 320.9375 95.855469 321.113281 98.277344 321.273438 100.59375 C 321.820312 108.542969 322.347656 116.042969 325.671875 121.945312 C 331.375 132.128906 344.824219 135.804688 355.613281 134.941406 C 368.625 133.894531 381.082031 127.726562 393.113281 121.773438 L 399.605469 134.882812 C 386.9375 141.152344 372.597656 148.253906 356.785156 149.523438 C 348.386719 150.1875 339.660156 148.847656 332.222656 145.710938 C 323.691406 142.132812 317.027344 136.390625 312.933594 129.109375 C 307.992188 120.328125 307.335938 110.792969 306.695312 101.585938 C 306.535156 99.265625 306.378906 97.070312 306.160156 94.90625 C 305.636719 89.722656 304.460938 85.085938 302.75 81.523438 C 300.960938 77.757812 298.585938 75.199219 295.734375 73.90625 C 293.121094 72.710938 289.582031 72.394531 285.203125 72.964844 C 277.5625 73.953125 270.164062 76.957031 262.328125 80.128906 C 258.777344 81.574219 255.097656 83.0625 251.351562 84.378906 C 244.023438 86.941406 237.109375 88.367188 230.765625 88.601562 C 222.585938 88.90625 215.292969 87.257812 209.117188 83.703125 C 202.449219 79.859375 197.113281 73.847656 193.253906 65.808594 C 190.304688 59.652344 188.207031 52.304688 187.050781 43.957031 C 186.535156 40.265625 186.179688 36.527344 185.8125 32.929688 C 184.871094 23.3125 183.992188 14.230469 180.464844 6.25 Z M 193.816406 0.34375 " fill-opacity="1" fill-rule="nonzero"/></g></g></g></g><g clip-path="url(#0588ccb140)"><g clip-path="url(#8a1f73369f)"><g clip-path="url(#3ac7765ca6)"><g clip-path="url(#6ebf40871c)"><path fill="#c63e45" d="M 82.398438 34.804688 C 89.492188 50.535156 90.921875 67.527344 92.324219 83.96875 C 92.796875 89.605469 93.296875 95.441406 94.015625 101.019531 C 96.257812 118.386719 102.695312 141.109375 120.738281 150.765625 C 137.683594 159.839844 160.492188 155.050781 176.660156 149.421875 C 182.640625 147.34375 188.734375 144.902344 194.628906 142.539062 C 208.648438 136.933594 223.148438 131.140625 238.699219 128.976562 C 249.984375 127.402344 259.320312 128.242188 267.207031 131.53125 C 276.472656 135.40625 283.707031 142.554688 288.722656 152.8125 C 292.5625 160.664062 295.003906 170.132812 295.972656 180.910156 C 296.316406 184.722656 296.527344 188.609375 296.734375 192.359375 C 297.46875 205.699219 298.167969 218.300781 304.128906 228.578125 C 314.605469 246.65625 339.566406 252.867188 359.644531 250.996094 C 382.96875 248.832031 404.894531 238.214844 426.101562 227.964844 L 432.472656 241.144531 C 411.128906 251.457031 386.945312 263.152344 361.003906 265.570312 C 347.5 266.820312 333.527344 264.996094 321.6875 260.4375 C 308.222656 255.25 297.777344 246.777344 291.5 235.917969 C 283.777344 222.597656 282.957031 207.628906 282.148438 193.160156 C 281.929688 189.363281 281.746094 185.78125 281.421875 182.207031 C 280.425781 171 276.527344 151.273438 261.597656 145.039062 C 256.183594 142.777344 249.367188 142.273438 240.730469 143.464844 C 226.929688 145.382812 213.886719 150.601562 200.066406 156.132812 C 194.015625 158.542969 187.765625 161.050781 181.457031 163.246094 C 169.414062 167.425781 158.105469 169.824219 147.84375 170.371094 C 134.890625 171.050781 123.453125 168.808594 113.859375 163.65625 C 103.417969 158.058594 95.089844 149.070312 89.132812 136.945312 C 84.445312 127.421875 81.234375 115.960938 79.53125 102.871094 C 78.765625 96.976562 78.269531 90.980469 77.765625 85.199219 C 76.414062 69.296875 75.132812 54.261719 69.082031 40.824219 Z M 82.398438 34.804688 " fill-opacity="1" fill-rule="nonzero"/></g></g></g></g><g clip-path="url(#73f2fd537d)"><g clip-path="url(#3e788817aa)"><g clip-path="url(#ce7542a4d9)"><g clip-path="url(#f392d9ff8c)"><path fill="#1c5765" d="M 22.210938 53.425781 C 30.785156 72.4375 32.542969 93.125 34.226562 113.121094 C 34.820312 120.042969 35.417969 127.207031 36.3125 134.089844 C 39.101562 155.746094 47.199219 184.121094 69.914062 196.289062 C 91.191406 207.679688 119.640625 201.734375 139.753906 194.75 C 147.132812 192.1875 154.621094 189.191406 161.84375 186.292969 C 178.925781 179.460938 196.597656 172.394531 215.46875 169.777344 C 229.003906 167.890625 240.144531 168.882812 249.53125 172.808594 C 260.492188 177.394531 269.074219 185.902344 275.050781 198.089844 C 279.675781 207.53125 282.605469 218.917969 283.765625 231.9375 C 284.175781 236.582031 284.441406 241.324219 284.695312 245.910156 C 285.605469 262.453125 286.476562 278.085938 293.972656 291.023438 C 307.164062 313.816406 338.445312 321.644531 363.582031 319.320312 C 392.453125 316.644531 419.460938 303.566406 445.582031 290.941406 L 451.957031 304.121094 C 425.941406 316.699219 396.449219 330.976562 364.945312 333.894531 C 348.632812 335.40625 331.785156 333.214844 317.492188 327.707031 C 301.347656 321.488281 288.855469 311.347656 281.328125 298.367188 C 272.070312 282.386719 271.070312 264.25 270.097656 246.71875 C 269.851562 242.265625 269.601562 237.640625 269.195312 233.238281 C 267.945312 219.132812 262.988281 194.28125 243.902344 186.320312 C 236.996094 183.441406 228.355469 182.769531 217.46875 184.277344 C 200.367188 186.65625 184.269531 193.082031 167.25 199.894531 C 159.859375 202.863281 152.210938 205.90625 144.519531 208.582031 C 129.917969 213.65625 116.214844 216.570312 103.792969 217.226562 C 88.226562 218.054688 74.507812 215.347656 63.003906 209.1875 C 50.519531 202.496094 40.546875 191.734375 33.402344 177.175781 C 27.738281 165.671875 23.84375 151.792969 21.808594 135.929688 C 20.886719 128.742188 20.253906 121.414062 19.664062 114.335938 C 18.007812 94.695312 16.425781 76.148438 8.886719 59.425781 Z M 22.210938 53.425781 " fill-opacity="1" fill-rule="nonzero"/></g></g></g></g></svg>